<svg xmlns="http://www.w3.org/2000/svg" version="1.1" xmlns:xlink="http://www.w3.org/1999/xlink" xmlns:svgjs="http://svgjs.dev/svgjs" width="1500" height="1500" viewBox="0 0 1500 1500"><rect width="1500" height="1500" fill="#000000"></rect><g transform="matrix(0.6666666666666666,0,0,0.6666666666666666,249.91357432012296,151.15195681511477)"><svg viewBox="0 0 206 247" data-background-color="#143b38" preserveAspectRatio="xMidYMid meet" height="1798" width="1500" xmlns="http://www.w3.org/2000/svg" xmlns:xlink="http://www.w3.org/1999/xlink"><g id="tight-bounds" transform="matrix(1,0,0,1,0.01780369005467719,-0.09999999999999432)"><svg viewBox="0 0 205.96439261989062 247.2" height="247.2" width="205.96439261989062"><g><svg viewBox="0 0 395.52 474.706053586846" height="247.2" width="205.96439261989062"><g transform="matrix(1,0,0,1,0,276.8776316091102)"><svg viewBox="0 0 395.52 197.82842197773576" height="197.82842197773576" width="395.52"><g id="textblocktransform"><svg viewBox="0 0 395.52 197.82842197773576" height="197.82842197773576" width="395.52" id="textblock"><g><svg viewBox="0 0 395.52 137.43994141340167" height="137.43994141340167" width="395.52"><g transform="matrix(1,0,0,1,0,0)"><svg width="395.52" viewBox="3.7 -40.45 136.54000000000002 47.45" height="137.43994141340167" data-palette-color="#e4cec5"><path d="M9.25-37.8L9.25-1.95Q9.25 0.4 6.5 0.4L6.5 0.4Q3.7 0.4 3.7-1.95L3.7-1.95 3.7-37.8Q3.7-40.15 6.5-40.15L6.5-40.15Q9.25-40.15 9.25-37.8L9.25-37.8ZM21.8-27.9L21.8-2.1Q21.8 0.3 19.05 0.3L19.05 0.3Q16.25 0.3 16.25-2.1L16.25-2.1 16.25-27.9Q16.25-30.3 19.05-30.3L19.05-30.3Q21.8-30.3 21.8-27.9L21.8-27.9ZM22.85-36.6L22.85-36.6Q22.85-35 21.75-33.9 20.65-32.8 19.05-32.8L19.05-32.8Q17.45-32.8 16.32-33.9 15.2-35 15.2-36.6L15.2-36.6Q15.2-38.25 16.32-39.35 17.45-40.45 19.05-40.45L19.05-40.45Q20.65-40.45 21.75-39.35 22.85-38.25 22.85-36.6ZM34.25-21.75L34.25-2.1Q34.25 0.3 31.5 0.3L31.5 0.3Q28.75 0.3 28.75-2.1L28.75-2.1 28.75-22.2Q28.75-24.25 29.4-25.75 30.05-27.25 31.45-28.2L31.45-28.2Q34.1-30.1 36.75-30.1L36.75-30.1 44.8-30.1Q47.35-30.1 50.1-28.2L50.1-28.2Q52.8-26.3 52.8-22.2L52.8-22.2 52.8-2.1Q52.8 0.3 50.05 0.3L50.05 0.3Q47.3 0.3 47.3-2.1L47.3-2.1 47.3-21.75Q47.3-23.05 46.5-24.25L46.5-24.25 46.55-24.2Q45.9-25.4 43.9-25.4L43.9-25.4 37.65-25.4Q35.6-25.4 34.95-24.2L34.95-24.2Q34.25-23.15 34.25-21.75L34.25-21.75ZM80.69-26.5L64.74-8.35 64.74-2Q64.74 0.35 61.99 0.35L61.99 0.35Q59.24 0.35 59.24-2L59.24-2 59.24-37.6Q59.24-40 61.99-40L61.99-40Q64.74-40 64.74-37.6L64.74-37.6 64.74-16.4Q65.99-17.9 67.52-19.63 69.04-21.35 70.57-23.13 72.09-24.9 73.59-26.63 75.09-28.35 76.39-29.85L76.39-29.85 76.39-29.8Q77.29-30.85 78.19-30.85L78.19-30.85Q78.69-30.85 79.17-30.63 79.64-30.4 80.19-30L80.19-30 80.14-30Q81.34-29 81.34-28L81.34-28Q81.34-27.65 81.19-27.23 81.04-26.8 80.69-26.5L80.69-26.5ZM75.94-13.75L81.44-3.35Q81.79-2.7 81.79-2L81.79-2Q81.79-0.7 80.29-0.05L80.29-0.05Q79.29 0.55 78.49 0.55L78.49 0.55Q77.94 0.55 77.44 0.18 76.94-0.2 76.64-0.75L76.64-0.75 71.64-10.4Q71.19-11.15 71.19-11.9L71.19-11.9Q71.19-13.15 72.49-14L72.49-14Q72.84-14.25 73.22-14.45 73.59-14.65 74.04-14.75L74.04-14.75Q74.59-14.85 75.09-14.55 75.59-14.25 75.94-13.75L75.94-13.75ZM93.89-30.1L101.89-30.1Q103.19-30.1 104.57-29.55 105.94-29 107.24-28.15L107.24-28.15 107.19-28.15Q108.49-27.2 109.19-25.68 109.89-24.15 109.89-22.15L109.89-22.15 109.89-7.95Q109.89-3.85 107.19-1.9L107.19-1.9Q104.54 0 101.89 0L101.89 0 93.89 0Q92.59 0 91.24-0.45 89.89-0.9 88.59-1.9L88.59-1.9Q85.89-3.8 85.89-7.95L85.89-7.95 85.89-22.15Q85.89-24.15 86.59-25.68 87.29-27.2 88.59-28.15L88.59-28.15 88.54-28.15Q89.79-29 91.19-29.55 92.59-30.1 93.89-30.1L93.89-30.1ZM94.79-4.7L100.99-4.7Q102.84-4.7 103.62-5.75 104.39-6.8 104.39-8L104.39-8 104.39-22.1Q104.39-23.35 103.62-24.38 102.84-25.4 100.99-25.4L100.99-25.4 94.79-25.4Q92.94-25.4 92.17-24.38 91.39-23.35 91.39-22.1L91.39-22.1 91.39-8Q91.39-6.8 92.17-5.75 92.94-4.7 94.79-4.7L94.79-4.7ZM132.24 0L126.29 0Q124.49 0 124.39-2.35L124.39-2.35Q124.39-4.7 126.29-4.7L126.29-4.7 131.34-4.7Q133.19-4.7 133.96-5.75 134.74-6.8 134.74-8L134.74-8 134.74-22.1Q134.74-23.35 133.96-24.43 133.19-25.5 131.29-25.4L131.29-25.4 121.69-25.4 121.69 4.65Q121.69 7 118.94 7L118.94 7Q116.19 7 116.19 4.6L116.19 4.6 116.19-27.15Q116.19-28.9 117.09-29.5 117.99-30.1 119.29-30.1L119.29-30.1 132.24-30.1Q133.54-30.1 134.86-29.65 136.19-29.2 137.59-28.4L137.59-28.4Q138.79-27.55 139.51-26.03 140.24-24.5 140.24-22.45L140.24-22.45 140.24-7.65Q140.24-3.55 137.59-1.8L137.59-1.8Q134.79 0 132.24 0L132.24 0Z" opacity="1" transform="matrix(1,0,0,1,0,0)" fill="#ffffff" class="wordmark-text-0" data-fill-palette-color="primary" id="text-0"></path></svg></g></svg></g><g transform="matrix(1,0,0,1,0,169.88621302251187)"><svg viewBox="0 0 395.52 27.942208955223883" height="27.942208955223883" width="395.52"><g transform="matrix(1,0,0,1,0,0)"><svg width="395.52" viewBox="2.05 -37.8 703.1800000000001 49.699999999999996" height="27.942208955223883" data-palette-color="#e4cec5"><path d="M30.4-4.05L31.45-0.45Q30.75-0.05 29.75 0.23 28.75 0.5 27.65 0.5L27.65 0.5Q25.8 0.5 24.45-0.48 23.1-1.45 22.6-3.3L22.6-3.3Q20.6-1.5 18.38-0.4 16.15 0.7 13.45 0.7L13.45 0.7Q10.4 0.7 7.78-0.85 5.15-2.4 3.6-5.18 2.05-7.95 2.05-11.45L2.05-11.45Q2.05-15.1 3.68-18.03 5.3-20.95 8.1-22.58 10.9-24.2 14.3-24.2L14.3-24.2Q18.65-24.2 22.3-21L22.3-21 22.3-30.35 17-30.35 17-34.3 27.1-34.3 27.1-6.05Q27.1-3.65 28.75-3.65L28.75-3.65Q29.85-3.65 30.4-4.05L30.4-4.05ZM7.15-11.5Q7.15-7.9 9.18-5.7 11.2-3.5 14.45-3.5L14.45-3.5Q18.2-3.5 22.3-6.9L22.3-6.9 22.3-17.25Q18.8-20.05 15.4-20.05L15.4-20.05Q13.05-20.05 11.15-18.95 9.25-17.85 8.2-15.9 7.15-13.95 7.15-11.5L7.15-11.5ZM55.4-24.15L57.5-24.15 57.5-14.15 53.15-14.15 53.15-19.3Q51.2-19.3 48.9-17.85 46.6-16.4 44.15-13.75L44.15-13.75 44.15-3.95 49.5-3.95 49.5 0 33.95 0 33.95-3.95 39.25-3.95 39.25-19.6 33.95-19.6 33.95-23.55 44.15-23.55 44.15-17.65Q46.8-20.7 49.67-22.43 52.55-24.15 55.4-24.15L55.4-24.15ZM74.3 0.7Q70.84 0.7 67.84-0.85 64.84-2.4 63.07-5.25 61.3-8.1 61.3-11.75L61.3-11.75Q61.3-15.45 63.07-18.28 64.84-21.1 67.84-22.65 70.84-24.2 74.3-24.2L74.3-24.2Q77.7-24.2 80.67-22.65 83.65-21.1 85.45-18.25 87.25-15.4 87.25-11.75L87.25-11.75Q87.25-8.1 85.5-5.25 83.75-2.4 80.77-0.85 77.8 0.7 74.3 0.7L74.3 0.7ZM74.3-3.25Q76.55-3.25 78.34-4.3 80.15-5.35 81.17-7.28 82.2-9.2 82.2-11.75L82.2-11.75Q82.2-14.3 81.17-16.23 80.15-18.15 78.34-19.2 76.55-20.25 74.3-20.25L74.3-20.25Q70.84-20.25 68.62-17.93 66.4-15.6 66.4-11.75L66.4-11.75Q66.4-7.9 68.62-5.58 70.84-3.25 74.3-3.25L74.3-3.25ZM109.39-24.2Q112.34-24.2 114.84-22.65 117.34-21.1 118.84-18.32 120.34-15.55 120.34-12L120.34-12Q120.34-8.35 118.72-5.45 117.09-2.55 114.29-0.93 111.49 0.7 108.09 0.7L108.09 0.7Q103.64 0.7 99.89-2.7L99.89-2.7 99.89 6.95 105.34 6.95 105.34 10.9 89.84 10.9 89.84 6.95 95.09 6.95 95.09-19.6 89.84-19.6 89.84-23.55 99.89-23.55 99.89-19Q101.84-21.4 104.34-22.8 106.84-24.2 109.39-24.2L109.39-24.2ZM107.04-3.5Q109.39-3.5 111.27-4.58 113.14-5.65 114.19-7.6 115.24-9.55 115.24-12.05L115.24-12.05Q115.24-15.6 113.22-17.82 111.19-20.05 108.04-20.05L108.04-20.05Q105.89-20.05 103.79-18.75 101.69-17.45 99.89-15.15L99.89-15.15 99.89-6.4Q103.49-3.5 107.04-3.5L107.04-3.5ZM169.29-23.55L169.29-19.6 165.59-19.6 155.69 2.6Q153.59 7.25 150.96 9.58 148.34 11.9 144.84 11.9L144.84 11.9Q142.89 11.9 141.31 11.28 139.74 10.65 137.89 9.45L137.89 9.45 139.89 5.7Q142.44 7.55 144.84 7.55L144.84 7.55Q146.99 7.55 148.69 6.18 150.39 4.8 151.69 1.8L151.69 1.8 152.04 1 141.94-19.6 138.04-19.6 138.04-23.55 151.24-23.55 151.24-19.95 147.19-19.95 154.29-4.15 161.24-19.95 157.39-19.95 157.39-23.55 169.29-23.55ZM183.69 0.7Q180.24 0.7 177.24-0.85 174.24-2.4 172.46-5.25 170.69-8.1 170.69-11.75L170.69-11.75Q170.69-15.45 172.46-18.28 174.24-21.1 177.24-22.65 180.24-24.2 183.69-24.2L183.69-24.2Q187.09-24.2 190.06-22.65 193.04-21.1 194.84-18.25 196.64-15.4 196.64-11.75L196.64-11.75Q196.64-8.1 194.89-5.25 193.14-2.4 190.16-0.85 187.19 0.7 183.69 0.7L183.69 0.7ZM183.69-3.25Q185.94-3.25 187.74-4.3 189.54-5.35 190.56-7.28 191.59-9.2 191.59-11.75L191.59-11.75Q191.59-14.3 190.56-16.23 189.54-18.15 187.74-19.2 185.94-20.25 183.69-20.25L183.69-20.25Q180.24-20.25 178.01-17.93 175.79-15.6 175.79-11.75L175.79-11.75Q175.79-7.9 178.01-5.58 180.24-3.25 183.69-3.25L183.69-3.25ZM229.88-4L230.98-0.45Q229.28 0.5 227.23 0.5L227.23 0.5Q224.88 0.5 223.43-0.9 221.98-2.3 221.78-4.9L221.78-4.9Q219.28-2.15 216.88-0.75 214.48 0.65 211.83 0.65L211.83 0.65Q207.93 0.65 205.81-1.95 203.68-4.55 203.68-9.6L203.68-9.6 203.68-19.6 198.98-19.6 198.98-23.55 208.58-23.55 208.58-9.75Q208.58-6.95 209.76-5.43 210.93-3.9 213.53-3.9L213.53-3.9Q217.38-3.9 221.73-8.75L221.73-8.75 221.73-19.6 217.43-19.6 217.43-23.55 226.63-23.55 226.63-6.05Q226.63-3.6 228.33-3.6L228.33-3.6Q229.33-3.6 229.88-4L229.88-4ZM254.93-24.15L257.03-24.15 257.03-14.15 252.68-14.15 252.68-19.3Q250.73-19.3 248.43-17.85 246.13-16.4 243.68-13.75L243.68-13.75 243.68-3.95 249.03-3.95 249.03 0 233.48 0 233.48-3.95 238.78-3.95 238.78-19.6 233.48-19.6 233.48-23.55 243.68-23.55 243.68-17.65Q246.33-20.7 249.21-22.43 252.08-24.15 254.93-24.15L254.93-24.15ZM285.53-3.95L290.98-3.95 290.98 0 275.38 0 275.38-3.95 280.63-3.95 280.63-30.35 275.38-30.35 275.38-34.3 285.53-34.3 285.53-3.95ZM300.32-28.9Q298.72-28.9 297.62-29.75 296.52-30.6 296.52-31.9L296.52-31.9Q296.52-33.25 297.62-34.13 298.72-35 300.32-35L300.32-35Q302.02-35 303.12-34.13 304.22-33.25 304.22-31.9L304.22-31.9Q304.22-30.6 303.12-29.75 302.02-28.9 300.32-28.9L300.32-28.9ZM303.32-3.95L308.67-3.95 308.67 0 293.12 0 293.12-3.95 298.42-3.95 298.42-19.6 293.12-19.6 293.12-23.55 303.32-23.55 303.32-3.95ZM340.42-3.95L345.12-3.95 345.12 0 331.22 0 331.22-3.95 335.57-3.95 335.57-13.7Q335.57-16.45 334.2-18.03 332.82-19.6 330.27-19.6L330.27-19.6Q325.92-19.6 321.07-14.1L321.07-14.1 321.07-3.95 325.42-3.95 325.42 0 310.87 0 310.87-3.95 316.17-3.95 316.17-19.6 310.87-19.6 310.87-23.55 321.07-23.55 321.07-18Q323.87-21.1 326.45-22.63 329.02-24.15 331.97-24.15L331.97-24.15Q336.02-24.15 338.22-21.55 340.42-18.95 340.42-13.85L340.42-13.85 340.42-3.95ZM377.22-5.4L379.77-2.5Q378.52-1 376.97-0.15 375.42 0.7 373.27 0.7L373.27 0.7Q370.02 0.7 367.67-1.75 365.32-4.2 364.47-8.65L364.47-8.65Q362.37-8.7 360.52-9.22 358.67-9.75 356.62-10.7L356.62-10.7 356.62-3.95 361.57-3.95 361.57 0 346.57 0 346.57-3.95 351.82-3.95 351.82-30.35 346.57-30.35 346.57-34.3 356.62-34.3 356.62-19.3Q361.62-24 366.97-24L366.97-24Q370.57-24 372.99-22.1 375.42-20.2 375.42-16.7L375.42-16.7Q375.42-13.9 373.52-11.9 371.62-9.9 368.67-9.1L368.67-9.1Q369.37-6.3 370.62-4.98 371.87-3.65 373.47-3.65L373.47-3.65Q375.67-3.65 377.22-5.4L377.22-5.4ZM356.62-13.9Q360.47-12.25 364.17-12.25L364.17-12.25Q366.77-12.35 368.57-13.43 370.37-14.5 370.37-16.45L370.37-16.45Q370.37-18.15 369.14-19.05 367.92-19.95 365.77-19.95L365.77-19.95Q363.77-19.95 361.39-18.9 359.02-17.85 356.62-15.85L356.62-15.85 356.62-13.9ZM417.56-7L419.76-3.8Q415.11 0.7 408.91 0.7L408.91 0.7Q405.61 0.7 402.71-0.85 399.81-2.4 398.06-5.23 396.31-8.05 396.31-11.7L396.31-11.7Q396.31-15.15 397.91-18.03 399.51-20.9 402.21-22.55 404.91-24.2 408.06-24.2L408.06-24.2Q413.06-24.2 415.86-20.65L415.86-20.65 415.86-23.55 419.41-23.55 419.41-15.3 417.31-15.15Q414.86-20.15 409.51-20.15L409.51-20.15Q407.21-20.15 405.36-19.07 403.51-18 402.46-16.1 401.41-14.2 401.41-11.75L401.41-11.75Q401.41-9.35 402.54-7.45 403.66-5.55 405.49-4.53 407.31-3.5 409.41-3.5L409.41-3.5Q411.86-3.45 413.74-4.35 415.61-5.25 417.56-7L417.56-7ZM436.31 0.7Q432.86 0.7 429.86-0.85 426.86-2.4 425.09-5.25 423.31-8.1 423.31-11.75L423.31-11.75Q423.31-15.45 425.09-18.28 426.86-21.1 429.86-22.65 432.86-24.2 436.31-24.2L436.31-24.2Q439.71-24.2 442.69-22.65 445.66-21.1 447.46-18.25 449.26-15.4 449.26-11.75L449.26-11.75Q449.26-8.1 447.51-5.25 445.76-2.4 442.79-0.85 439.81 0.7 436.31 0.7L436.31 0.7ZM436.31-3.25Q438.56-3.25 440.36-4.3 442.16-5.35 443.19-7.28 444.21-9.2 444.21-11.75L444.21-11.75Q444.21-14.3 443.19-16.23 442.16-18.15 440.36-19.2 438.56-20.25 436.31-20.25L436.31-20.25Q432.86-20.25 430.64-17.93 428.41-15.6 428.41-11.75L428.41-11.75Q428.41-7.9 430.64-5.58 432.86-3.25 436.31-3.25L436.31-3.25ZM482.31-3.95L487.01-3.95 487.01 0 473.11 0 473.11-3.95 477.46-3.95 477.46-13.7Q477.46-16.45 476.08-18.03 474.71-19.6 472.16-19.6L472.16-19.6Q467.81-19.6 462.96-14.1L462.96-14.1 462.96-3.95 467.31-3.95 467.31 0 452.76 0 452.76-3.95 458.06-3.95 458.06-19.6 452.76-19.6 452.76-23.55 462.96-23.55 462.96-18Q465.76-21.1 468.33-22.63 470.91-24.15 473.86-24.15L473.86-24.15Q477.91-24.15 480.11-21.55 482.31-18.95 482.31-13.85L482.31-13.85 482.31-3.95ZM504.41-32.5Q502.11-32.5 500.71-31.05 499.31-29.6 499.31-27.05L499.31-27.05 499.31-23.55 506.81-23.55 506.81-19.6 499.31-19.6 499.31-3.95 506.21-3.95 506.21 0 489.16 0 489.16-3.95 494.46-3.95 494.46-19.6 489.16-19.6 489.16-23.55 494.46-23.55 494.46-26.9Q494.46-31.55 497.03-34.1 499.61-36.65 503.91-36.65L503.91-36.65Q506.11-36.65 507.93-36.08 509.76-35.5 512.16-34.4L512.16-34.4 510.36-30.6Q508.81-31.5 507.38-32 505.96-32.5 504.41-32.5L504.41-32.5ZM517.6-28.9Q516-28.9 514.9-29.75 513.8-30.6 513.8-31.9L513.8-31.9Q513.8-33.25 514.9-34.13 516-35 517.6-35L517.6-35Q519.3-35 520.4-34.13 521.5-33.25 521.5-31.9L521.5-31.9Q521.5-30.6 520.4-29.75 519.3-28.9 517.6-28.9L517.6-28.9ZM520.6-3.95L525.95-3.95 525.95 0 510.4 0 510.4-3.95 515.7-3.95 515.7-19.6 510.4-19.6 510.4-23.55 520.6-23.55 520.6-3.95ZM556.85-4.05L557.9-0.45Q557.2-0.05 556.2 0.23 555.2 0.5 554.1 0.5L554.1 0.5Q552.25 0.5 550.9-0.48 549.55-1.45 549.05-3.3L549.05-3.3Q547.05-1.5 544.83-0.4 542.6 0.7 539.9 0.7L539.9 0.7Q536.85 0.7 534.23-0.85 531.6-2.4 530.05-5.18 528.5-7.95 528.5-11.45L528.5-11.45Q528.5-15.1 530.13-18.03 531.75-20.95 534.55-22.58 537.35-24.2 540.75-24.2L540.75-24.2Q545.1-24.2 548.75-21L548.75-21 548.75-30.35 543.45-30.35 543.45-34.3 553.55-34.3 553.55-6.05Q553.55-3.65 555.2-3.65L555.2-3.65Q556.3-3.65 556.85-4.05L556.85-4.05ZM533.6-11.5Q533.6-7.9 535.63-5.7 537.65-3.5 540.9-3.5L540.9-3.5Q544.65-3.5 548.75-6.9L548.75-6.9 548.75-17.25Q545.25-20.05 541.85-20.05L541.85-20.05Q539.5-20.05 537.6-18.95 535.7-17.85 534.65-15.9 533.6-13.95 533.6-11.5L533.6-11.5ZM582.75-6.7L584.85-3.5Q580.05 0.7 573.9 0.7L573.9 0.7Q570.55 0.7 567.55-0.7 564.55-2.1 562.7-4.8 560.85-7.5 560.85-11.2L560.85-11.2Q560.85-15.15 562.75-18.1 564.65-21.05 567.7-22.63 570.75-24.2 574.1-24.2L574.1-24.2Q577.05-24.2 579.37-23.25 581.7-22.3 583.02-20.6 584.35-18.9 584.35-16.7L584.35-16.7Q584.35-13.4 581.52-11.58 578.7-9.75 574.75-9.75L574.75-9.75Q572.2-9.75 570-10.28 567.8-10.8 565.55-11.8L565.55-11.8 565.55-11.35Q565.55-9 566.67-7.2 567.8-5.4 569.7-4.45 571.6-3.5 573.85-3.5L573.85-3.5Q578.95-3.5 582.75-6.7L582.75-6.7ZM574.45-20.3Q571.75-20.3 569.42-18.75 567.1-17.2 566.1-14.55L566.1-14.55Q569.9-13.2 573.7-13.2L573.7-13.2Q576.2-13.2 577.82-14.13 579.45-15.05 579.45-16.7L579.45-16.7Q579.45-18.3 578.05-19.3 576.65-20.3 574.45-20.3L574.45-20.3ZM617.75-3.95L622.45-3.95 622.45 0 608.54 0 608.54-3.95 612.89-3.95 612.89-13.7Q612.89-16.45 611.52-18.03 610.14-19.6 607.6-19.6L607.6-19.6Q603.25-19.6 598.39-14.1L598.39-14.1 598.39-3.95 602.75-3.95 602.75 0 588.2 0 588.2-3.95 593.5-3.95 593.5-19.6 588.2-19.6 588.2-23.55 598.39-23.55 598.39-18Q601.2-21.1 603.77-22.63 606.35-24.15 609.29-24.15L609.29-24.15Q613.35-24.15 615.54-21.55 617.75-18.95 617.75-13.85L617.75-13.85 617.75-3.95ZM642.59-5.35L644.29-1.65Q642.44-0.55 640.67 0.05 638.89 0.65 636.59 0.65L636.59 0.65Q632.74 0.65 630.47-1.78 628.19-4.2 628.19-8.7L628.19-8.7 628.19-19.6 622.94-19.6 622.94-23.55 628.19-23.55 628.19-30.1 633.09-30.1 633.09-23.55 640.89-23.55 640.89-19.6 633.09-19.6 633.09-8.65Q633.09-6.1 634.24-4.9 635.39-3.7 637.34-3.7L637.34-3.7Q638.74-3.7 639.99-4.13 641.24-4.55 642.59-5.35L642.59-5.35ZM655.29-3.95L660.74-3.95 660.74 0 645.14 0 645.14-3.95 650.39-3.95 650.39-30.35 645.14-30.35 645.14-34.3 655.29-34.3 655.29-3.95ZM692.49-23.55L692.49-19.6 688.79-19.6 678.89 2.6Q676.79 7.25 674.16 9.58 671.54 11.9 668.04 11.9L668.04 11.9Q666.09 11.9 664.51 11.28 662.94 10.65 661.09 9.45L661.09 9.45 663.09 5.7Q665.64 7.55 668.04 7.55L668.04 7.55Q670.19 7.55 671.89 6.18 673.59 4.8 674.89 1.8L674.89 1.8 675.24 1 665.14-19.6 661.24-19.6 661.24-23.55 674.44-23.55 674.44-19.95 670.39-19.95 677.49-4.15 684.44-19.95 680.59-19.95 680.59-23.55 692.49-23.55ZM700.08-9.85L699.53-17.5Q698.98-22.95 697.98-28.95L697.98-28.95Q697.88-29.65 697.61-31.43 697.33-33.2 697.33-34L697.33-34Q697.33-35.6 698.26-36.7 699.18-37.8 701.08-37.8L701.08-37.8Q702.98-37.8 703.93-36.7 704.88-35.6 704.88-34L704.88-34Q704.88-33.1 704.28-29.65L704.28-29.65Q703.63-25.95 703.28-23.38 702.93-20.8 702.68-17.5L702.68-17.5 702.18-9.85 700.08-9.85ZM701.08-6Q702.93-6 704.08-5.05 705.23-4.1 705.23-2.6L705.23-2.6Q705.23-1.2 704.06-0.28 702.88 0.65 701.08 0.65L701.08 0.65Q699.38 0.65 698.18-0.28 696.98-1.2 696.98-2.6L696.98-2.6Q696.98-4.1 698.18-5.05 699.38-6 701.08-6L701.08-6Z" opacity="1" transform="matrix(1,0,0,1,0,0)" fill="#ffffff" class="slogan-text-1" data-fill-palette-color="secondary" id="text-1"></path></svg></g></svg></g></svg></g></svg></g><g transform="matrix(1,0,0,1,75.54432,0)"><svg viewBox="0 0 244.43135999999998 244.43135999999998" height="244.43135999999998" width="244.43135999999998"><g><svg xmlns="http://www.w3.org/2000/svg" xmlns:xlink="http://www.w3.org/1999/xlink" version="1.1" x="0" y="0" viewBox="0 0 24 24" style="enable-background:new 0 0 24 24;" xml:space="preserve" height="244.43135999999998" width="244.43135999999998" class="icon-icon-0" data-fill-palette-color="accent" id="icon-0"><g fill="#d7ea21" data-fill-palette-color="accent"><g fill="#d7ea21" data-fill-palette-color="accent"><path d="M20.5 0h-17C1.57 0 0 1.57 0 3.5v17C0 22.43 1.57 24 3.5 24h17c1.93 0 3.5-1.57 3.5-3.5v-17C24 1.57 22.43 0 20.5 0zM5 5.5C5 5.224 5.224 5 5.5 5S6 5.224 6 5.5v2l3.2-2.4c0.151-0.114 0.355-0.13 0.523-0.047C9.892 5.138 9.999 5.311 9.999 5.5V8h8.5c0.276 0 0.5 0.224 0.5 0.5S18.776 9 18.5 9H10v2.5c0 0.189-0.107 0.362-0.276 0.447C9.653 11.982 9.576 12 9.5 12c-0.106 0-0.212-0.034-0.3-0.1L6 9.5v2C6 11.776 5.776 12 5.5 12S5 11.776 5 11.5V5.5zM18.5 19c-0.276 0-0.5-0.224-0.5-0.5v-2l-3.2 2.4c-0.088 0.066-0.194 0.1-0.3 0.1-0.076 0-0.153-0.018-0.224-0.053C14.107 18.862 14 18.689 14 18.5V16H5.5C5.224 16 5 15.776 5 15.5S5.224 15 5.5 15H14v-2.5c0-0.189 0.107-0.362 0.276-0.447 0.169-0.084 0.373-0.066 0.523 0.047l3.2 2.4v-2c0-0.276 0.224-0.5 0.5-0.5s0.5 0.224 0.5 0.5v6H19C19 18.776 18.776 19 18.5 19z" fill="#ffffff" data-fill-palette-color="accent"></path></g></g></svg></g></svg></g><g></g></svg></g><defs></defs></svg><rect width="205.96439261989062" height="247.2" fill="none" stroke="none" visibility="hidden"></rect></g></svg></g></svg>